<?xml version="1.0" encoding="UTF-8" standalone="no"?>
<!-- Created with Inkscape (http://www.inkscape.org/) -->

<svg
   xmlns:dc="http://purl.org/dc/elements/1.1/"
   xmlns:cc="http://creativecommons.org/ns#"
   xmlns:rdf="http://www.w3.org/1999/02/22-rdf-syntax-ns#"
   xmlns:svg="http://www.w3.org/2000/svg"
   xmlns="http://www.w3.org/2000/svg"
   xmlns:sodipodi="http://sodipodi.sourceforge.net/DTD/sodipodi-0.dtd"
   xmlns:inkscape="http://www.inkscape.org/namespaces/inkscape"
   width="89.430573mm"
   height="18.13772mm"
   viewBox="0 0 89.430573 18.13772"
   version="1.1"
   id="svg2137"
   inkscape:version="0.92.3 (2405546, 2018-03-11)"
   sodipodi:docname="logo-element-americas.svg">
  <defs
     id="defs2131" />
  <sodipodi:namedview
     id="base"
     pagecolor="#ffffff"
     bordercolor="#666666"
     borderopacity="1.0"
     inkscape:pageopacity="0.0"
     inkscape:pageshadow="2"
     inkscape:zoom="2.8"
     inkscape:cx="147.03453"
     inkscape:cy="7.7972056"
     inkscape:document-units="mm"
     inkscape:current-layer="layer1"
     showgrid="false"
     fit-margin-top="0"
     fit-margin-left="0"
     fit-margin-right="0"
     fit-margin-bottom="0"
     inkscape:window-width="1920"
     inkscape:window-height="1017"
     inkscape:window-x="1912"
     inkscape:window-y="-8"
     inkscape:window-maximized="1" />
  <metadata
     id="metadata2134">
    <rdf:RDF>
      <cc:Work
         rdf:about="">
        <dc:format>image/svg+xml</dc:format>
        <dc:type
           rdf:resource="http://purl.org/dc/dcmitype/StillImage" />
        <dc:title />
      </cc:Work>
    </rdf:RDF>
  </metadata>
  <g
     inkscape:label="Calque 1"
     inkscape:groupmode="layer"
     id="layer1"
     transform="translate(-32.391856,-115.574)">
    <path
       inkscape:connector-curvature="0"
       id="path921"
       style="fill:#999999;fill-opacity:1;fill-rule:nonzero;stroke:none;stroke-width:0.35277778"
       d="m 112.00251,122.24785 4.68665,8.0712 -4.69617,-14.74505 -10.38508,18.13772 z" />
    <path
       inkscape:connector-curvature="0"
       id="path923"
       style="fill:#999999;fill-opacity:1;fill-rule:nonzero;stroke:none;stroke-width:0.35277778"
       d="m 111.93231,116.14479 3.89572,12.23116 -3.78424,-6.51651 -9.18034,10.12296 z" />
    <path
       inkscape:connector-curvature="0"
       id="path925"
       style="fill:#393536;fill-opacity:1;fill-rule:nonzero;stroke:none;stroke-width:0.35277778"
       d="m 116.88213,130.16489 -4.01955,-12.62274 8.95985,16.16957 z" />
    <path
       inkscape:connector-curvature="0"
       id="path927"
       style="fill:#393536;fill-opacity:1;fill-rule:nonzero;stroke:none;stroke-width:0.35277778"
       d="m 111.16466,129.14218 h 4.05413 l 0.49071,0.85725 z" />
    <path
       inkscape:connector-curvature="0"
       id="path929"
       style="fill:#393536;fill-opacity:1;fill-rule:nonzero;stroke:none;stroke-width:0.35277778"
       d="m 107.89194,130.31905 h 8.26382 l -7.46195,-1.40688" />
    <path
       inkscape:connector-curvature="0"
       id="path931"
       style="fill:#393536;fill-opacity:1;fill-rule:nonzero;stroke:none;stroke-width:0.35277778"
       d="m 110.74027,123.98563 -3.54012,6.1655 -4.40302,2.59186 z" />
    <path
       inkscape:connector-curvature="0"
       id="path933"
       style="fill:#393536;fill-opacity:1;fill-rule:nonzero;stroke:none;stroke-width:0.35277778"
       d="m 36.346847,124.62098 h -3.672416 v 3.55671 h 4.207227 v 0.28399 h -4.489802 v -7.63729 h 4.489802 v 0.28258 h -4.207227 v 3.23144 h 3.672416 z" />
    <path
       inkscape:connector-curvature="0"
       id="path935"
       style="fill:#393536;fill-opacity:1;fill-rule:nonzero;stroke:none;stroke-width:0.35277778"
       d="m 41.824428,128.17769 h 4.1275 v 0.28399 H 41.53515 v -7.63729 h 0.289278 z" />
    <path
       inkscape:connector-curvature="0"
       id="path937"
       style="fill:#393536;fill-opacity:1;fill-rule:nonzero;stroke:none;stroke-width:0.35277778"
       d="m 54.640138,124.62098 h -3.671005 v 3.55671 h 4.205817 v 0.28399 H 50.6855 v -7.63729 h 4.48945 v 0.28258 h -4.205817 v 3.23144 h 3.671005 z" />
    <path
       inkscape:connector-curvature="0"
       id="path939"
       style="fill:#393536;fill-opacity:1;fill-rule:nonzero;stroke:none;stroke-width:0.35277778"
       d="m 63.401726,128.00942 h 0.03175 l 3.188759,-7.18503 h 0.319971 v 7.63729 h -0.282575 v -6.93985 l -0.03175,-0.006 -3.094921,6.94549 h -0.224719 l -3.164065,-7.09718 -0.03034,0.006 v 7.09154 h -0.283985 v -7.63729 h 0.394407 z" />
    <path
       inkscape:connector-curvature="0"
       id="path941"
       style="fill:#393536;fill-opacity:1;fill-rule:nonzero;stroke:none;stroke-width:0.35277778"
       d="m 76.217791,124.62098 h -3.671358 v 3.55671 h 4.207227 v 0.28399 H 72.2628 v -7.63729 h 4.49086 v 0.28258 h -4.207227 v 3.23144 h 3.671358 z" />
    <path
       inkscape:connector-curvature="0"
       id="path943"
       style="fill:#393536;fill-opacity:1;fill-rule:nonzero;stroke:none;stroke-width:0.35277778"
       d="m 86.909778,128.46168 h -0.282569 l -4.900089,-7.11341 -0.0303,0.0109 v 7.10247 h -0.289632 v -7.63729 h 0.289632 l 4.89903,7.09684 0.0314,-0.0109 v -7.0859 h 0.282573 z" />
    <path
       inkscape:connector-curvature="0"
       id="path945"
       style="fill:#393536;fill-opacity:1;fill-rule:nonzero;stroke:none;stroke-width:0.35277778"
       d="M 97.15127,121.10697 H 94.4751 v 7.35471 h -0.282221 v -7.35471 h -2.864908 v -0.28258 h 5.823299 z" />
    <g
       aria-label="AMERICAS"
       transform="matrix(0.09983937,0,0,0.09983937,6.3449479,33.724393)"
       style="font-style:normal;font-variant:normal;font-weight:300;font-stretch:normal;font-size:40px;line-height:1.25;font-family:Roboto;-inkscape-font-specification:'Roboto Light';letter-spacing:0px;word-spacing:0px;fill:#918f90;fill-opacity:1;stroke:none"
       id="flowRoot2076">
      <path
         d="M 279.56445,990.95703 H 266.6543 l -2.92969,7.96875 h -2.51953 l 10.76172,-28.4375 h 2.28515 l 10.76172,28.4375 h -2.5 z m -12.16797,-2.05078 h 11.40625 l -5.70312,-15.48828 z"
         style="letter-spacing:16.17519951px;fill:#918f90;fill-opacity:1"
         id="path2720" />
      <path
         d="m 308.57169,970.48828 10.48828,25.09766 10.52734,-25.09766 h 3.20313 v 28.4375 h -2.40235 v -12.38281 l 0.19531,-12.69531 -10.58593,25.07812 H 318.142 l -10.54688,-24.98047 0.19532,12.51953 v 12.46094 h -2.40235 v -28.4375 z"
         style="letter-spacing:16.17519951px;fill:#918f90;fill-opacity:1"
         id="path2722" />
      <path
         d="m 371.87579,985.29297 h -13.30078 v 11.60156 h 15.29297 v 2.03125 h -17.69531 v -28.4375 h 17.59765 v 2.05078 h -15.19531 v 10.72266 h 13.30078 z"
         style="letter-spacing:16.17519951px;fill:#918f90;fill-opacity:1"
         id="path2724" />
      <path
         d="m 405.70724,987.08984 h -8.26171 v 11.83594 h -2.42188 v -28.4375 h 9.23828 q 4.55078,0 7.10938,2.20703 2.55859,2.20703 2.55859,6.17188 0,2.73437 -1.60156,4.82422 -1.60156,2.08984 -4.29688,2.89062 l 7.10938,12.08984 v 0.25391 h -2.5586 z m -8.26171,-2.05078 h 7.36328 q 3.02734,0 4.86328,-1.71875 1.83594,-1.71875 1.83594,-4.45312 0,-3.00782 -1.91407,-4.66797 -1.91406,-1.66016 -5.37109,-1.66016 h -6.77734 z"
         style="letter-spacing:16.17519951px;fill:#918f90;fill-opacity:1"
         id="path2726" />
      <path
         d="m 439.57776,998.92578 h -2.40234 v -28.4375 h 2.40234 z"
         style="letter-spacing:16.17519951px;fill:#918f90;fill-opacity:1"
         id="path2728" />
      <path
         d="m 483.58498,990.05859 q -0.48829,4.49219 -3.22266,6.875 -2.71484,2.38282 -7.24609,2.38282 -3.16407,0 -5.60547,-1.58204 -2.42188,-1.58203 -3.75,-4.47265 -1.32813,-2.91016 -1.34766,-6.64063 v -3.6914 q 0,-3.78907 1.32813,-6.71875 1.32812,-2.92969 3.80859,-4.51172 2.5,-1.60156 5.74219,-1.60156 4.57031,0 7.20703,2.48046 2.65625,2.46094 3.08594,6.81641 h -2.42188 q -0.89844,-7.24609 -7.87109,-7.24609 -3.86719,0 -6.17188,2.89062 -2.28515,2.89063 -2.28515,7.98828 v 3.47657 q 0,4.92187 2.22656,7.85156 2.24609,2.92969 6.05469,2.92969 3.76953,0 5.68359,-1.79688 1.91406,-1.81641 2.36328,-5.42969 z"
         style="letter-spacing:16.17519951px;fill:#918f90;fill-opacity:1"
         id="path2730" />
      <path
         d="m 520.99065,990.95703 h -12.91016 l -2.92969,7.96875 h -2.51953 l 10.76172,-28.4375 h 2.28516 l 10.76172,28.4375 h -2.5 z m -12.16797,-2.05078 h 11.40625 l -5.70313,-15.48828 z"
         style="letter-spacing:16.17519951px;fill:#918f90;fill-opacity:1"
         id="path2732" />
      <path
         d="m 562.90805,991.93359 q 0,-2.36328 -1.66016,-3.73047 -1.66015,-1.38671 -6.07421,-2.61718 -4.41407,-1.25 -6.44532,-2.71485 -2.89062,-2.07031 -2.89062,-5.42968 0,-3.26172 2.67578,-5.29297 2.69531,-2.05078 6.875,-2.05078 2.83203,0 5.05859,1.09375 2.2461,1.09375 3.47657,3.04687 1.23046,1.95313 1.23046,4.35547 h -2.42187 q 0,-2.91016 -1.99219,-4.66797 -1.99219,-1.77734 -5.35156,-1.77734 -3.26172,0 -5.19531,1.46484 -1.9336,1.44531 -1.9336,3.78906 0,2.16797 1.73828,3.53516 1.73829,1.36719 5.56641,2.42187 3.82813,1.03516 5.80078,2.16797 1.97266,1.11328 2.96875,2.67578 0.9961,1.5625 0.9961,3.69141 0,3.35938 -2.69532,5.39063 -2.67578,2.03125 -7.07031,2.03125 -3.00781,0 -5.52734,-1.07422 -2.5,-1.07422 -3.8086,-3.00782 -1.28906,-1.93359 -1.28906,-4.43359 h 2.40234 q 0,3.00781 2.2461,4.74609 2.24609,1.73829 5.97656,1.73829 3.32031,0 5.33203,-1.46485 2.01172,-1.46484 2.01172,-3.88672 z"
         style="letter-spacing:16.17519951px;fill:#918f90;fill-opacity:1"
         id="path2734" />
    </g>
  </g>
</svg>
