<?xml version="1.0" encoding="UTF-8" standalone="no"?>
<!-- Created with Inkscape (http://www.inkscape.org/) -->

<svg
   xmlns:dc="http://purl.org/dc/elements/1.1/"
   xmlns:cc="http://creativecommons.org/ns#"
   xmlns:rdf="http://www.w3.org/1999/02/22-rdf-syntax-ns#"
   xmlns:svg="http://www.w3.org/2000/svg"
   xmlns="http://www.w3.org/2000/svg"
   xmlns:sodipodi="http://sodipodi.sourceforge.net/DTD/sodipodi-0.dtd"
   xmlns:inkscape="http://www.inkscape.org/namespaces/inkscape"
   width="89.430573mm"
   height="18.13772mm"
   viewBox="0 0 89.430573 18.13772"
   version="1.1"
   id="svg2137"
   inkscape:version="0.92.3 (2405546, 2018-03-11)"
   sodipodi:docname="logo-element-group.svg">
  <defs
     id="defs2131" />
  <sodipodi:namedview
     id="base"
     pagecolor="#ffffff"
     bordercolor="#666666"
     borderopacity="1.0"
     inkscape:pageopacity="0.0"
     inkscape:pageshadow="2"
     inkscape:zoom="1.4"
     inkscape:cx="193.39602"
     inkscape:cy="110.08784"
     inkscape:document-units="mm"
     inkscape:current-layer="layer1"
     showgrid="false"
     fit-margin-top="0"
     fit-margin-left="0"
     fit-margin-right="0"
     fit-margin-bottom="0"
     inkscape:window-width="1920"
     inkscape:window-height="1017"
     inkscape:window-x="1912"
     inkscape:window-y="-8"
     inkscape:window-maximized="1" />
  <metadata
     id="metadata2134">
    <rdf:RDF>
      <cc:Work
         rdf:about="">
        <dc:format>image/svg+xml</dc:format>
        <dc:type
           rdf:resource="http://purl.org/dc/dcmitype/StillImage" />
        <dc:title></dc:title>
      </cc:Work>
    </rdf:RDF>
  </metadata>
  <g
     inkscape:label="Calque 1"
     inkscape:groupmode="layer"
     id="layer1"
     transform="translate(-32.391856,-115.574)">
    <path
       inkscape:connector-curvature="0"
       id="path921"
       style="fill:#999999;fill-opacity:1;fill-rule:nonzero;stroke:none;stroke-width:0.35277778"
       d="m 112.00251,122.24785 4.68665,8.0712 -4.69617,-14.74505 -10.38508,18.13772 z" />
    <path
       inkscape:connector-curvature="0"
       id="path923"
       style="fill:#999999;fill-opacity:1;fill-rule:nonzero;stroke:none;stroke-width:0.35277778"
       d="m 111.93231,116.14479 3.89572,12.23116 -3.78424,-6.51651 -9.18034,10.12296 z" />
    <path
       inkscape:connector-curvature="0"
       id="path925"
       style="fill:#393536;fill-opacity:1;fill-rule:nonzero;stroke:none;stroke-width:0.35277778"
       d="m 116.88213,130.16489 -4.01955,-12.62274 8.95985,16.16957 z" />
    <path
       inkscape:connector-curvature="0"
       id="path927"
       style="fill:#393536;fill-opacity:1;fill-rule:nonzero;stroke:none;stroke-width:0.35277778"
       d="m 111.16466,129.14218 h 4.05413 l 0.49071,0.85725 z" />
    <path
       inkscape:connector-curvature="0"
       id="path929"
       style="fill:#393536;fill-opacity:1;fill-rule:nonzero;stroke:none;stroke-width:0.35277778"
       d="m 107.89194,130.31905 h 8.26382 l -7.46195,-1.40688" />
    <path
       inkscape:connector-curvature="0"
       id="path931"
       style="fill:#393536;fill-opacity:1;fill-rule:nonzero;stroke:none;stroke-width:0.35277778"
       d="m 110.74027,123.98563 -3.54012,6.1655 -4.40302,2.59186 z" />
    <path
       inkscape:connector-curvature="0"
       id="path933"
       style="fill:#393536;fill-opacity:1;fill-rule:nonzero;stroke:none;stroke-width:0.35277778"
       d="m 36.346847,124.62098 h -3.672416 v 3.55671 h 4.207227 v 0.28399 h -4.489802 v -7.63729 h 4.489802 v 0.28258 h -4.207227 v 3.23144 h 3.672416 z" />
    <path
       inkscape:connector-curvature="0"
       id="path935"
       style="fill:#393536;fill-opacity:1;fill-rule:nonzero;stroke:none;stroke-width:0.35277778"
       d="m 41.824428,128.17769 h 4.1275 v 0.28399 H 41.53515 v -7.63729 h 0.289278 z" />
    <path
       inkscape:connector-curvature="0"
       id="path937"
       style="fill:#393536;fill-opacity:1;fill-rule:nonzero;stroke:none;stroke-width:0.35277778"
       d="m 54.640138,124.62098 h -3.671005 v 3.55671 h 4.205817 v 0.28399 H 50.6855 v -7.63729 h 4.48945 v 0.28258 h -4.205817 v 3.23144 h 3.671005 z" />
    <path
       inkscape:connector-curvature="0"
       id="path939"
       style="fill:#393536;fill-opacity:1;fill-rule:nonzero;stroke:none;stroke-width:0.35277778"
       d="m 63.401726,128.00942 h 0.03175 l 3.188759,-7.18503 h 0.319971 v 7.63729 h -0.282575 v -6.93985 l -0.03175,-0.006 -3.094921,6.94549 h -0.224719 l -3.164065,-7.09718 -0.03034,0.006 v 7.09154 h -0.283985 v -7.63729 h 0.394407 z" />
    <path
       inkscape:connector-curvature="0"
       id="path941"
       style="fill:#393536;fill-opacity:1;fill-rule:nonzero;stroke:none;stroke-width:0.35277778"
       d="m 76.217791,124.62098 h -3.671358 v 3.55671 h 4.207227 v 0.28399 H 72.2628 v -7.63729 h 4.49086 v 0.28258 h -4.207227 v 3.23144 h 3.671358 z" />
    <path
       inkscape:connector-curvature="0"
       id="path943"
       style="fill:#393536;fill-opacity:1;fill-rule:nonzero;stroke:none;stroke-width:0.35277778"
       d="m 86.909778,128.46168 h -0.282569 l -4.900089,-7.11341 -0.0303,0.0109 v 7.10247 h -0.289632 v -7.63729 h 0.289632 l 4.89903,7.09684 0.0314,-0.0109 v -7.0859 h 0.282573 z" />
    <path
       inkscape:connector-curvature="0"
       id="path945"
       style="fill:#393536;fill-opacity:1;fill-rule:nonzero;stroke:none;stroke-width:0.35277778"
       d="M 97.15127,121.10697 H 94.4751 v 7.35471 h -0.282221 v -7.35471 h -2.864908 v -0.28258 h 5.823299 z" />
    <g
       aria-label="GROUP"
       transform="matrix(0.37437432,0,0,0.37437432,-15.536531,109.05442)"
       style="font-style:normal;font-variant:normal;font-weight:normal;font-stretch:normal;font-size:10.66666698px;line-height:1.25;font-family:roboto;-inkscape-font-specification:roboto;letter-spacing:0px;word-spacing:0px;fill:#999999;fill-opacity:1;stroke:none"
       id="flowRoot837">
      <path
         d="m 133.96354,64.610026 q -0.33333,0.473959 -1.04687,0.739584 -0.70834,0.265625 -1.58854,0.265625 -0.89063,0 -1.58334,-0.427084 -0.69271,-0.427083 -1.07291,-1.208333 -0.38021,-0.78125 -0.38542,-1.791667 v -0.958333 q 0,-1.578125 0.79687,-2.489584 0.79688,-0.916666 2.14063,-0.916666 1.17187,0 1.88542,0.598958 0.71354,0.59375 0.84895,1.640625 h -0.64062 q -0.14063,-0.833333 -0.68229,-1.260417 -0.53646,-0.432291 -1.40625,-0.432291 -1.0625,0 -1.68229,0.755208 -0.6198,0.755208 -0.6198,2.130209 v 0.895833 q 0,0.864583 0.29167,1.53125 0.29688,0.661458 0.84375,1.026042 0.55208,0.364583 1.26563,0.364583 0.82812,0 1.42187,-0.260417 0.38542,-0.171875 0.57292,-0.401041 v -1.958334 h -2.03646 V 61.91211 h 2.67708 z"
         style="font-style:normal;font-variant:normal;font-weight:300;font-stretch:normal;font-family:roboto;-inkscape-font-specification:'roboto Light';letter-spacing:3.88704109px"
         id="path845" />
      <path
         d="m 142.50162,62.354818 h -2.20312 v 3.15625 h -0.64583 v -7.583334 h 2.46354 q 1.21354,0 1.89583,0.588542 0.68229,0.588542 0.68229,1.645833 0,0.729167 -0.42708,1.286459 -0.42708,0.557292 -1.14583,0.770833 l 1.89583,3.223959 v 0.06771 h -0.68229 z m -2.20312,-0.546875 h 1.96354 q 0.80729,0 1.29688,-0.458333 0.48958,-0.458334 0.48958,-1.187501 0,-0.802083 -0.51042,-1.244791 -0.51041,-0.442709 -1.43229,-0.442709 h -1.80729 z"
         style="font-style:normal;font-variant:normal;font-weight:300;font-stretch:normal;font-family:roboto;-inkscape-font-specification:'roboto Light';letter-spacing:3.88704109px"
         id="path847" />
      <path
         d="m 155.93033,62.13086 q 0,1.046875 -0.36458,1.838541 -0.35938,0.791667 -1.03125,1.21875 -0.67188,0.427084 -1.55208,0.427084 -1.32813,0 -2.14584,-0.947917 -0.81771,-0.953125 -0.81771,-2.567708 v -0.78125 q 0,-1.036459 0.36459,-1.833334 0.36979,-0.802083 1.04166,-1.229167 0.67188,-0.432291 1.54688,-0.432291 0.875,0 1.54167,0.421875 0.67187,0.421875 1.03645,1.192708 0.36459,0.770833 0.38021,1.786459 z m -0.64062,-0.822917 q 0,-1.369792 -0.61979,-2.145834 -0.6198,-0.776041 -1.69792,-0.776041 -1.05729,0 -1.6875,0.78125 -0.625,0.776041 -0.625,2.171875 v 0.791667 q 0,1.348958 0.625,2.140625 0.625,0.786458 1.69792,0.786458 1.08854,0 1.69791,-0.776042 0.60938,-0.78125 0.60938,-2.171875 z"
         style="font-style:normal;font-variant:normal;font-weight:300;font-stretch:normal;font-family:roboto;-inkscape-font-specification:'roboto Light';letter-spacing:3.88704109px"
         id="path849" />
      <path
         d="m 166.66633,57.927734 v 5.177084 q -0.005,0.765625 -0.33854,1.333333 -0.33333,0.567709 -0.94271,0.875 -0.60417,0.302084 -1.39062,0.302084 -1.19792,0 -1.92188,-0.651042 -0.71875,-0.65625 -0.74479,-1.8125 v -5.223959 h 0.63542 v 5.130209 q 0,0.958333 0.54687,1.489583 0.54688,0.526042 1.48438,0.526042 0.9375,0 1.47916,-0.53125 0.54688,-0.53125 0.54688,-1.479167 v -5.135417 z"
         style="font-style:normal;font-variant:normal;font-weight:300;font-stretch:normal;font-family:roboto;-inkscape-font-specification:'roboto Light';letter-spacing:3.88704109px"
         id="path851" />
      <path
         d="m 172.99087,62.422526 v 3.088542 h -0.64062 v -7.583334 h 2.58333 q 1.18229,0 1.86458,0.604167 0.6875,0.604167 0.6875,1.661458 0,1.067709 -0.66145,1.651042 -0.65625,0.578125 -1.90625,0.578125 z m 0,-0.541666 h 1.94271 q 0.93229,0 1.42188,-0.442709 0.48958,-0.442708 0.48958,-1.234375 0,-0.786458 -0.48958,-1.25 -0.48438,-0.46875 -1.38021,-0.479167 h -1.98438 z"
         style="font-style:normal;font-variant:normal;font-weight:300;font-stretch:normal;font-family:roboto;-inkscape-font-specification:'roboto Light';letter-spacing:3.88704109px"
         id="path853" />
    </g>
  </g>
</svg>
