<?xml version="1.0" encoding="UTF-8" standalone="no"?>
<!-- Created with Inkscape (http://www.inkscape.org/) -->

<svg
   xmlns:dc="http://purl.org/dc/elements/1.1/"
   xmlns:cc="http://creativecommons.org/ns#"
   xmlns:rdf="http://www.w3.org/1999/02/22-rdf-syntax-ns#"
   xmlns:svg="http://www.w3.org/2000/svg"
   xmlns="http://www.w3.org/2000/svg"
   xmlns:sodipodi="http://sodipodi.sourceforge.net/DTD/sodipodi-0.dtd"
   xmlns:inkscape="http://www.inkscape.org/namespaces/inkscape"
   width="89.430573mm"
   height="18.13772mm"
   viewBox="0 0 89.430573 18.13772"
   version="1.1"
   id="svg2137"
   inkscape:version="0.92.2 (5c3e80d, 2017-08-06)"
   sodipodi:docname="logo-element-maritime.svg">
  <defs
     id="defs2131" />
  <sodipodi:namedview
     id="base"
     pagecolor="#ffffff"
     bordercolor="#666666"
     borderopacity="1.0"
     inkscape:pageopacity="0.0"
     inkscape:pageshadow="2"
     inkscape:zoom="5.6"
     inkscape:cx="248.27347"
     inkscape:cy="20.542236"
     inkscape:document-units="mm"
     inkscape:current-layer="layer1"
     showgrid="false"
     fit-margin-top="0"
     fit-margin-left="0"
     fit-margin-right="0"
     fit-margin-bottom="0"
     inkscape:window-width="1920"
     inkscape:window-height="1017"
     inkscape:window-x="-8"
     inkscape:window-y="-8"
     inkscape:window-maximized="1" />
  <metadata
     id="metadata2134">
    <rdf:RDF>
      <cc:Work
         rdf:about="">
        <dc:format>image/svg+xml</dc:format>
        <dc:type
           rdf:resource="http://purl.org/dc/dcmitype/StillImage" />
        <dc:title></dc:title>
      </cc:Work>
    </rdf:RDF>
  </metadata>
  <g
     inkscape:label="Calque 1"
     inkscape:groupmode="layer"
     id="layer1"
     transform="translate(-32.391856,-115.574)">
    <path
       inkscape:connector-curvature="0"
       id="path933-8"
       style="fill:#393536;fill-opacity:1;fill-rule:nonzero;stroke:none;stroke-width:0.35277778"
       d="m 36.346847,124.62098 h -3.672416 v 3.55671 h 4.207227 v 0.28399 h -4.489802 v -7.63729 h 4.489802 v 0.28258 h -4.207227 v 3.23144 h 3.672416 z" />
    <path
       inkscape:connector-curvature="0"
       id="path935-4"
       style="fill:#393536;fill-opacity:1;fill-rule:nonzero;stroke:none;stroke-width:0.35277778"
       d="m 41.824428,128.17769 h 4.1275 v 0.28399 H 41.53515 v -7.63729 h 0.289278 z" />
    <path
       inkscape:connector-curvature="0"
       id="path937-4"
       style="fill:#393536;fill-opacity:1;fill-rule:nonzero;stroke:none;stroke-width:0.35277778"
       d="m 54.640138,124.62098 h -3.671005 v 3.55671 h 4.205817 v 0.28399 H 50.6855 v -7.63729 h 4.48945 v 0.28258 h -4.205817 v 3.23144 h 3.671005 z" />
    <path
       inkscape:connector-curvature="0"
       id="path939-2"
       style="fill:#393536;fill-opacity:1;fill-rule:nonzero;stroke:none;stroke-width:0.35277778"
       d="m 63.401726,128.00942 h 0.03175 l 3.188759,-7.18503 h 0.319971 v 7.63729 h -0.282575 v -6.93985 l -0.03175,-0.006 -3.094921,6.94549 h -0.224719 l -3.164065,-7.09718 -0.03034,0.006 v 7.09154 H 59.82985 v -7.63729 h 0.394407 z" />
    <path
       inkscape:connector-curvature="0"
       id="path941-0"
       style="fill:#393536;fill-opacity:1;fill-rule:nonzero;stroke:none;stroke-width:0.35277778"
       d="m 76.217791,124.62098 h -3.671358 v 3.55671 h 4.207227 v 0.28399 H 72.2628 v -7.63729 h 4.49086 v 0.28258 h -4.207227 v 3.23144 h 3.671358 z" />
    <path
       inkscape:connector-curvature="0"
       id="path943-6"
       style="fill:#393536;fill-opacity:1;fill-rule:nonzero;stroke:none;stroke-width:0.35277778"
       d="m 86.909778,128.46168 h -0.282569 l -4.900089,-7.11341 -0.0303,0.0109 v 7.10247 h -0.289632 v -7.63729 h 0.289632 l 4.89903,7.09684 0.0314,-0.0109 v -7.0859 h 0.282572 z" />
    <path
       inkscape:connector-curvature="0"
       id="path945-3"
       style="fill:#393536;fill-opacity:1;fill-rule:nonzero;stroke:none;stroke-width:0.35277778"
       d="M 97.15127,121.10697 H 94.4751 v 7.35471 h -0.282221 v -7.35471 h -2.864908 v -0.28258 h 5.823299 z" />
    <path
       inkscape:connector-curvature="0"
       id="path3710-4-5-2"
       style="fill:#918f90;fill-opacity:1;fill-rule:nonzero;stroke:none;stroke-width:0.46522146"
       d="m 32.814966,130.66668 1.057918,2.5392 1.058379,-2.5392 h 0.316814 v 2.87741 h -0.253553 v -1.2482 l 0.02097,-1.29051 -1.057918,2.53871 h -0.190267 l -1.057919,-2.51779 0.02097,1.24866 v 1.26913 h -0.232608 v -2.87741 z" />
    <path
       inkscape:connector-curvature="0"
       id="path3714-7-9-9"
       style="fill:#918f90;fill-opacity:1;fill-rule:nonzero;stroke:none;stroke-width:0.46522146"
       d="m 37.85062,132.52847 h 1.142581 l -0.570829,-1.56548 z m 1.227719,0.21166 h -1.290992 l -0.295872,0.80391 H 37.23746 l 1.078846,-2.87739 h 0.232613 l 1.078845,2.87739 h -0.25354 z" />
    <path
       inkscape:connector-curvature="0"
       id="path3718-4-9-0"
       style="fill:#918f90;fill-opacity:1;fill-rule:nonzero;stroke:none;stroke-width:0.46522146"
       d="m 41.807282,132.14778 h 0.74063 c 0.211684,0 0.359619,-0.0633 0.486627,-0.19075 0.126994,-0.10563 0.190743,-0.25353 0.190743,-0.44382 0,-0.19074 -0.0637,-0.36008 -0.190743,-0.46569 -0.126994,-0.10563 -0.317288,-0.16933 -0.5499,-0.16933 h -0.677357 z m 0.825306,0.19027 h -0.825306 v 1.20586 H 41.57467 v -2.87741 h 0.909969 c 0.317288,0 0.5499,0.0847 0.71924,0.23262 0.169339,0.1484 0.254015,0.36007 0.254015,0.61409 0,0.19029 -0.04233,0.35962 -0.148411,0.48663 -0.105631,0.14794 -0.25354,0.2326 -0.444283,0.29587 l 0.719226,1.20633 v 0.042 h -0.25354 z" />
    <path
       d="m 45.933561,133.54409 h -0.232612 v -2.87741 h 0.232612 z"
       style="fill:#918f90;fill-opacity:1;fill-rule:nonzero;stroke:none;stroke-width:0.46522146"
       id="path3720-5-6-8"
       inkscape:connector-curvature="0" />
    <path
       inkscape:connector-curvature="0"
       id="path3724-8-8-4"
       style="fill:#918f90;fill-opacity:1;fill-rule:nonzero;stroke:none;stroke-width:0.46522146"
       d="m 50.12265,130.87841 h -0.973242 v 2.66572 h -0.254013 v -2.66572 h -0.972782 v -0.21167 h 2.200037 z" />
    <path
       d="m 52.408051,133.54409 h -0.233074 v -2.87741 h 0.233074 z"
       style="fill:#918f90;fill-opacity:1;fill-rule:nonzero;stroke:none;stroke-width:0.46522146"
       id="path3726-2-3-4"
       inkscape:connector-curvature="0" />
    <path
       inkscape:connector-curvature="0"
       id="path3730-1-9-2"
       style="fill:#918f90;fill-opacity:1;fill-rule:nonzero;stroke:none;stroke-width:0.46522146"
       d="m 55.031575,130.66668 1.057442,2.5392 1.05838,-2.5392 h 0.316813 v 2.87741 h -0.232598 v -1.2482 -1.29051 l -1.05792,2.53871 h -0.19028 l -1.057905,-2.51779 0.02096,1.24866 v 1.26913 h -0.232612 v -2.87741 z" />
    <path
       inkscape:connector-curvature="0"
       id="path3734-1-2-0"
       style="fill:#918f90;fill-opacity:1;fill-rule:nonzero;stroke:none;stroke-width:0.46522146"
       d="m 61.294341,132.1689 h -1.332862 v 1.16351 h 1.523143 v 0.21168 h -1.777143 v -2.87739 h 1.777143 v 0.21167 h -1.523143 v 1.07885 h 1.332862 z" />
    <g
       id="g5922-5-1"
       transform="matrix(0.74892654,0,0,0.74892654,70.691893,89.454855)">
      <path
         d="m 54.585675,59.066568 v -24.0344 l -1.50777,17.02294 -5.66385,-2.16606 z"
         style="fill:#918f90;fill-opacity:1;fill-rule:nonzero;stroke:none;stroke-width:0.35277778"
         id="path3702-4-8-0"
         inkscape:connector-curvature="0" />
      <path
         d="m 55.099355,59.066568 v -24.0344 l 1.4919,17.02294 5.67972,-2.16606 z"
         style="fill:#393536;fill-opacity:1;fill-rule:nonzero;stroke:none;stroke-width:0.35277778"
         id="path3706-7-5-3"
         inkscape:connector-curvature="0" />
    </g>
  </g>
</svg>
